<?xml version="1.0" encoding="UTF-8"?>
<svg version="1.1" xmlns="http://www.w3.org/2000/svg" width="1366" height="768">
<path d="M0 0 C450.78 0 901.56 0 1366 0 C1366 253.44 1366 506.88 1366 768 C915.22 768 464.44 768 0 768 C0 514.56 0 261.12 0 0 Z " fill="#151923" transform="translate(0,0)"/>
<path d="M0 0 C2.97 0 5.94 0 9 0 C9 19.8 9 39.6 9 60 C-2.55 60 -14.1 60 -26 60 C-26 57.03 -26 54.06 -26 51 C-28.64 51 -31.28 51 -34 51 C-34 42.42 -34 33.84 -34 25 C-31.36 25 -28.72 25 -26 25 C-26 22.36 -26 19.72 -26 17 C-17.42 17 -8.84 17 0 17 C0 11.39 0 5.78 0 0 Z " fill="#666E7F" transform="translate(900,289)"/>
<path d="M0 0 C8.58 0 17.16 0 26 0 C26 2.64 26 5.28 26 8 C28.97 8 31.94 8 35 8 C35 16.58 35 25.16 35 34 C32.03 34 29.06 34 26 34 C26 36.97 26 39.94 26 43 C17.42 43 8.84 43 0 43 C0 40.03 0 37.06 0 34 C-2.64 34 -5.28 34 -8 34 C-8 25.42 -8 16.84 -8 8 C-5.36 8 -2.72 8 0 8 C0 5.36 0 2.72 0 0 Z " fill="#6A7181" transform="translate(755,306)"/>
<path d="M0 0 C8.58 0 17.16 0 26 0 C26 2.64 26 5.28 26 8 C28.64 8 31.28 8 34 8 C34 16.58 34 25.16 34 34 C31.36 34 28.72 34 26 34 C26 36.97 26 39.94 26 43 C17.42 43 8.84 43 0 43 C0 40.03 0 37.06 0 34 C-2.64 34 -5.28 34 -8 34 C-8 25.42 -8 16.84 -8 8 C-5.36 8 -2.72 8 0 8 C0 5.36 0 2.72 0 0 Z " fill="#303744" transform="translate(602,306)"/>
<path d="M0 0 C2.97 0 5.94 0 9 0 C9 5.61 9 11.22 9 17 C17.58 17 26.16 17 35 17 C35 19.64 35 22.28 35 25 C37.64 25 40.28 25 43 25 C43 36.55 43 48.1 43 60 C40.03 60 37.06 60 34 60 C34 48.78 34 37.56 34 26 C25.75 26 17.5 26 9 26 C9 37.22 9 48.44 9 60 C6.03 60 3.06 60 0 60 C0 40.2 0 20.4 0 0 Z " fill="#707682" transform="translate(457,289)"/>
<path d="M0 0 C8.58 0 17.16 0 26 0 C26 2.64 26 5.28 26 8 C28.64 8 31.28 8 34 8 C34 13.94 34 19.88 34 26 C22.78 26 11.56 26 0 26 C0 28.64 0 31.28 0 34 C-2.97 34 -5.94 34 -9 34 C-9 25.42 -9 16.84 -9 8 C-6.03 8 -3.06 8 0 8 C0 5.36 0 2.72 0 0 Z " fill="#6F7581" transform="translate(517,306)"/>
<path d="M0 0 C2.97 0 5.94 0 9 0 C9 11.22 9 22.44 9 34 C14.28 34 19.56 34 25 34 C25 22.78 25 11.56 25 0 C27.97 0 30.94 0 34 0 C34 11.22 34 22.44 34 34 C30.535 34.495 30.535 34.495 27 35 C26.67 37.64 26.34 40.28 26 43 C20.06 43 14.12 43 8 43 C8 40.03 8 37.06 8 34 C5.36 34 2.72 34 0 34 C0 22.78 0 11.56 0 0 Z " fill="#6D7484" transform="translate(679,306)"/>
<path d="M0 0 C11.22 0 22.44 0 34 0 C34 2.64 34 5.28 34 8 C36.97 8 39.94 8 43 8 C43 10.97 43 13.94 43 17 C40.03 17 37.06 17 34 17 C34 14.36 34 11.72 34 9 C26.08 9.33 18.16 9.66 10 10 C9.67 20.89 9.34 31.78 9 43 C6.03 43 3.06 43 0 43 C0 28.81 0 14.62 0 0 Z " fill="#6A7182" transform="translate(798,306)"/>
<path d="M0 0 C8.58 0 17.16 0 26 0 C26 2.64 26 5.28 26 8 C28.64 8 31.28 8 34 8 C34 16.58 34 25.16 34 34 C31.36 34 28.72 34 26 34 C26 25.75 26 17.5 26 9 C17.42 9 8.84 9 0 9 C0 17.25 0 25.5 0 34 C-2.64 34 -5.28 34 -8 34 C-8 25.42 -8 16.84 -8 8 C-5.36 8 -2.72 8 0 8 C0 5.36 0 2.72 0 0 Z " fill="#6C7481" transform="translate(602,306)"/>
<path d="M0 0 C8.25 0 16.5 0 25 0 C25 8.25 25 16.5 25 25 C16.75 25 8.5 25 0 25 C0 16.75 0 8.5 0 0 Z " fill="#293040" transform="translate(875,315)"/>
<path d="M0 0 C8.25 0 16.5 0 25 0 C25 8.25 25 16.5 25 25 C16.75 25 8.5 25 0 25 C0 16.75 0 8.5 0 0 Z " fill="#2D3343" transform="translate(756,315)"/>
<path d="M0 0 C2.97 0 5.94 0 9 0 C9 19.8 9 39.6 9 60 C6.03 60 3.06 60 0 60 C0 40.2 0 20.4 0 0 Z " fill="#646C7C" transform="translate(849,289)"/>
<path d="M0 0 C2.64 0 5.28 0 8 0 C8 19.8 8 39.6 8 60 C5.36 60 2.72 60 0 60 C0 40.2 0 20.4 0 0 Z " fill="#6F7684" transform="translate(577,289)"/>
<path d="M0 0 C2.64 0 5.28 0 8 0 C8 19.8 8 39.6 8 60 C5.36 60 2.72 60 0 60 C0 40.2 0 20.4 0 0 Z " fill="#6F7684" transform="translate(560,289)"/>
<path d="M0 0 C8.58 0 17.16 0 26 0 C26 2.64 26 5.28 26 8 C28.64 8 31.28 8 34 8 C34 8.33 34 8.66 34 9 C31.03 9 28.06 9 25 9 C25 11.64 25 14.28 25 17 C16.75 17 8.5 17 0 17 C0 14.36 0 11.72 0 9 C-2.97 9 -5.94 9 -9 9 C-9 8.67 -9 8.34 -9 8 C-6.03 8 -3.06 8 0 8 C0 5.36 0 2.72 0 0 Z " fill="#383E4B" transform="translate(517,306)"/>
<path d="M0 0 C11.22 0 22.44 0 34 0 C34 2.97 34 5.94 34 9 C22.78 9 11.56 9 0 9 C0 6.03 0 3.06 0 0 Z " fill="#6E7481" transform="translate(517,340)"/>
<path d="M0 0 C2.97 0 5.94 0 9 0 C9 11.22 9 22.44 9 34 C6.03 34 3.06 34 0 34 C0 22.78 0 11.56 0 0 Z " fill="#686E7E" transform="translate(730,306)"/>
<path d="M0 0 C2.64 0 5.28 0 8 0 C8 11.22 8 22.44 8 34 C5.36 34 2.72 34 0 34 C0 22.78 0 11.56 0 0 Z " fill="#6D7484" transform="translate(705,306)"/>
<path d="M0 0 C8.58 0 17.16 0 26 0 C26 2.97 26 5.94 26 9 C17.42 9 8.84 9 0 9 C0 6.03 0 3.06 0 0 Z " fill="#6B7180" transform="translate(602,340)"/>
<path d="M0 0 C0.33 0 0.66 0 1 0 C1 11.22 1 22.44 1 34 C6.28 34 11.56 34 17 34 C17 22.78 17 11.56 17 0 C17.33 0 17.66 0 18 0 C18.16878778 4.83781742 18.32921127 9.67581659 18.48217773 14.51416016 C18.53526551 16.15713807 18.59056478 17.80004618 18.64819336 19.44287109 C18.73104142 21.81592762 18.80570627 24.18912854 18.87890625 26.5625 C18.90594131 27.28679199 18.93297638 28.01108398 18.96083069 28.75732422 C18.98092697 29.45744629 19.00102325 30.15756836 19.02172852 30.87890625 C19.04171402 31.4829126 19.06169952 32.08691895 19.08229065 32.70922852 C18.95846688 36.15618111 18.42781762 39.57745904 18 43 C12.06 43 6.12 43 0 43 C0 28.81 0 14.62 0 0 Z " fill="#5E6575" transform="translate(687,306)"/>
<path d="M0 0 C2.64 0 5.28 0 8 0 C8 8.25 8 16.5 8 25 C5.36 25 2.72 25 0 25 C0 16.75 0 8.5 0 0 Z " fill="#677080" transform="translate(866,315)"/>
<path d="M0 0 C2.64 0 5.28 0 8 0 C8 8.25 8 16.5 8 25 C5.36 25 2.72 25 0 25 C0 16.75 0 8.5 0 0 Z " fill="#6B7282" transform="translate(781,315)"/>
<path d="M0 0 C2.64 0 5.28 0 8 0 C8 8.25 8 16.5 8 25 C5.36 25 2.72 25 0 25 C0 16.75 0 8.5 0 0 Z " fill="#6B7282" transform="translate(747,315)"/>
<path d="M0 0 C2.64 0 5.28 0 8 0 C8 8.25 8 16.5 8 25 C5.36 25 2.72 25 0 25 C0 16.75 0 8.5 0 0 Z " fill="#6F7684" transform="translate(594,315)"/>
<path d="M0 0 C8.25 0 16.5 0 25 0 C25 2.64 25 5.28 25 8 C16.75 8 8.5 8 0 8 C0 5.36 0 2.72 0 0 Z " fill="#6C7383" transform="translate(756,306)"/>
<path d="M0 0 C8.25 0 16.5 0 25 0 C25 2.64 25 5.28 25 8 C16.75 8 8.5 8 0 8 C0 5.36 0 2.72 0 0 Z " fill="#717784" transform="translate(517,306)"/>
<path d="M0 0 C0.33 0 0.66 0 1 0 C1 19.8 1 39.6 1 60 C-10.55 60 -22.1 60 -34 60 C-34 48.78 -34 37.56 -34 26 C-36.64 26 -39.28 26 -42 26 C-42 25.67 -42 25.34 -42 25 C-39.36 25 -36.72 25 -34 25 C-34 22.36 -34 19.72 -34 17 C-33.67 17 -33.34 17 -33 17 C-33 19.64 -33 22.28 -33 25 C-24.75 25 -16.5 25 -8 25 C-8 25.33 -8 25.66 -8 26 C-16.25 26 -24.5 26 -33 26 C-33 36.89 -33 47.78 -33 59 C-22.11 59 -11.22 59 0 59 C0 39.53 0 20.06 0 0 Z " fill="#4A5262" transform="translate(908,289)"/>
<path d="M0 0 C5.61 0 11.22 0 17 0 C17 2.97 17 5.94 17 9 C11.39 9 5.78 9 0 9 C0 6.03 0 3.06 0 0 Z " fill="#686F7F" transform="translate(713,340)"/>
<path d="M0 0 C11.55 0 23.1 0 35 0 C35 2.97 35 5.94 35 9 C32.03 9 29.06 9 26 9 C26 6.36 26 3.72 26 1 C18.08 1.33 10.16 1.66 2 2 C1.67 12.89 1.34 23.78 1 35 C0.67 35 0.34 35 0 35 C0 23.45 0 11.9 0 0 Z " fill="#484E5E" transform="translate(806,314)"/>
<path d="M0 0 C0.33 0 0.66 0 1 0 C1 2.64 1 5.28 1 8 C12.22 8 23.44 8 35 8 C35 16.58 35 25.16 35 34 C34.67 34 34.34 34 34 34 C34 25.75 34 17.5 34 9 C23.11 9 12.22 9 1 9 C1 19.89 1 30.78 1 42 C9.25 42 17.5 42 26 42 C26 42.33 26 42.66 26 43 C17.42 43 8.84 43 0 43 C0 31.78 0 20.56 0 9 C-2.64 9 -5.28 9 -8 9 C-8 8.67 -8 8.34 -8 8 C-5.36 8 -2.72 8 0 8 C0 5.36 0 2.72 0 0 Z " fill="#4C5363" transform="translate(755,306)"/>
<path d="M0 0 C0.33 0 0.66 0 1 0 C1 2.64 1 5.28 1 8 C3.64 8 6.28 8 9 8 C9 8.33 9 8.66 9 9 C6.36 9 3.72 9 1 9 C1 19.89 1 30.78 1 42 C3.64 42 6.28 42 9 42 C9 42.33 9 42.66 9 43 C6.03 43 3.06 43 0 43 C0 31.78 0 20.56 0 9 C-8.25 9 -16.5 9 -25 9 C-25 8.67 -25 8.34 -25 8 C-16.75 8 -8.5 8 0 8 C0 5.36 0 2.72 0 0 Z " fill="#5B606C" transform="translate(491,306)"/>
<path d="M0 0 C2.64 0 5.28 0 8 0 C8 2.64 8 5.28 8 8 C5.36 8 2.72 8 0 8 C0 5.36 0 2.72 0 0 Z " fill="#6A7181" transform="translate(832,315)"/>
</svg>
